<svg width="48" height="48" viewBox="0 0 48 48" fill="none" xmlns="http://www.w3.org/2000/svg">
<rect width="48" height="48" fill="black"/>
<path d="M15.4 28.16C15.3467 27.8667 15.2667 27.6 15.16 27.36C15.08 27.12 15.04 26.8667 15.04 26.6C15.0133 25.9867 15 25.3867 15 24.8C15.0267 24.1867 15.04 23.5733 15.04 22.96C15.04 22.5333 15.1067 22.2533 15.24 22.12C15.3733 21.96 15.6533 21.8133 16.08 21.68C16.8 21.4667 17.5333 21.36 18.28 21.36C19.0267 21.36 19.76 21.3333 20.48 21.28C20.5333 21.28 20.6 21.28 20.68 21.28C20.76 21.28 20.8267 21.2667 20.88 21.24V14H27.44C27.4667 14.2667 27.48 14.5333 27.48 14.8C27.48 15.0667 27.48 15.3067 27.48 15.52C27.5067 16.4267 27.52 17.3333 27.52 18.24C27.5467 19.12 27.56 20.0133 27.56 20.92C27.9067 20.8933 28.24 20.8667 28.56 20.84C28.88 20.8133 29.2133 20.7867 29.56 20.76C29.8533 20.7333 30.08 20.7867 30.24 20.92C30.4 21.0267 30.5467 21.1867 30.68 21.4C30.92 21.1867 31.2667 20.9867 31.72 20.8C32.1733 20.6133 32.5733 20.68 32.92 21C33.0267 21.08 33.1067 21.28 33.16 21.6C33.2133 21.8933 33.2533 22.24 33.28 22.64C33.3333 23.0133 33.36 23.3467 33.36 23.64C33.3867 23.9067 33.4 24.04 33.4 24.04V26.48C33.4 27.12 33.32 27.52 33.16 27.68C33 27.8133 32.6 27.9067 31.96 27.96C31.24 27.9867 30.5067 28.0267 29.76 28.08C29.04 28.1067 28.32 28.12 27.6 28.12C27.5733 29.0267 27.5467 29.96 27.52 30.92C27.4933 31.8533 27.4667 32.8 27.44 33.76H21.4C21.32 32.8267 21.24 31.88 21.16 30.92C21.08 29.96 21 29.0267 20.92 28.12C20.3067 28.12 19.68 28.12 19.04 28.12C18.4267 28.12 17.8133 28.1333 17.2 28.16H15.4Z" fill="#FAFAFA"/>
</svg>
