<svg width="48" height="48" viewBox="0 0 48 48" fill="none" xmlns="http://www.w3.org/2000/svg">
<rect width="48" height="48" fill="black"/>
<path d="M27.72 27.72C26.9733 27.7467 26.32 27.76 25.76 27.76C25.2 27.76 24.92 27.7467 24.92 27.72H16V21.16C16.24 21.1333 16.4667 21.12 16.68 21.12C16.92 21.12 17.1333 21.12 17.32 21.12C20.6 21.04 23.8933 21 27.2 21C28.1067 21 29.0133 21.0267 29.92 21.08C30.8533 21.1067 31.8 21.1333 32.76 21.16V27.2C31.9333 27.28 31.08 27.3733 30.2 27.48C29.3467 27.56 28.52 27.64 27.72 27.72Z" fill="#FAFAFA"/>
</svg>
