<svg width="312" height="74" viewBox="0 0 312 74" fill="none" xmlns="http://www.w3.org/2000/svg">
<path d="M14.84 58.92C19.3733 58.8133 23.8533 58.76 28.28 58.76C32.76 58.7067 37.2667 58.6533 41.8 58.6C42.3333 59.1333 42.52 59.72 42.36 60.36C42.2533 60.9467 42.1467 61.5067 42.04 62.04C41.6667 63.9067 41 65.5867 40.04 67.08C39.08 68.6267 37.7733 70.0133 36.12 71.24C35.7467 71.4533 35.3733 71.6133 35 71.72C34.6267 71.88 34.2267 71.9333 33.8 71.88C33.3733 71.88 32.92 71.8533 32.44 71.8C31.96 71.8 31.5067 71.8533 31.08 71.96C29.96 72.12 28.9733 71.9867 28.12 71.56C27.32 71.1333 26.52 70.5733 25.72 69.88C24.9733 69.1867 24.2267 68.44 23.48 67.64C22.7867 66.8933 22.28 65.96 21.96 64.84C20.9467 66.0667 19.8533 67.1333 18.68 68.04C17.56 68.9467 16.2267 69.6667 14.68 70.2C12.76 70.7867 10.92 70.8933 9.16 70.52C7.45333 70.2 5.88 69.3467 4.44 67.96C3.69333 67.32 3.02667 66.5733 2.44 65.72C1.90667 64.8667 1.34667 64.0133 0.76 63.16C0.653334 62.9467 0.600001 62.7067 0.600001 62.44C0.653334 62.1733 0.626667 61.9333 0.52 61.72C0.52 60.6533 0.546667 59.64 0.600001 58.68C0.653334 57.6667 0.626667 56.6533 0.52 55.64C0.52 48.9733 0.52 42.3333 0.52 35.72C0.573334 29.1067 0.626667 22.4933 0.680001 15.88C0.680001 13.8 0.786667 11.7467 1 9.72001C1.21333 7.69334 1.42667 5.61334 1.64 3.48C2.01333 3.37334 2.36 3.32 2.68 3.32C3 3.32 3.29333 3.32 3.56 3.32C5.16 3.26667 6.73333 3.24 8.28 3.24C9.88 3.24 11.5067 3.24 13.16 3.24C14.3333 3.29334 15.0267 3.42667 15.24 3.64C15.5067 3.85334 15.64 4.57334 15.64 5.8C15.5867 9.05334 15.5067 12.36 15.4 15.72C15.2933 19.0267 15.24 22.3333 15.24 25.64C15.1867 29.48 15.16 33.3467 15.16 37.24C15.16 41.08 15.16 44.92 15.16 48.76V53.08C17.0267 51.0533 18.8933 49.9867 20.76 49.88C22.68 49.7733 24.76 50.44 27 51.88V9C27 8.20001 27 7.34667 27 6.44C27.0533 5.53334 27.08 4.57334 27.08 3.56C28.7867 3.61334 30.3867 3.69334 31.88 3.8C33.4267 3.85334 34.9467 3.88 36.44 3.88C36.8667 3.88 37.2667 3.88 37.64 3.88C38.0667 3.82667 38.4667 3.77334 38.84 3.72001C39.7467 3.50667 40.2533 3.85334 40.36 4.76C40.4133 5.88 40.4933 7 40.6 8.12C40.76 9.24 40.84 10.3333 40.84 11.4C40.8933 15.56 40.92 19.7467 40.92 23.96C40.92 28.12 40.92 32.28 40.92 36.44C40.9733 39.0533 41.0533 41.6933 41.16 44.36C41.2667 46.9733 41.3467 49.5867 41.4 52.2C41.4 53.0533 41.3467 53.96 41.24 54.92C41.1867 55.88 40.84 56.7333 40.2 57.48C39.8267 56.6267 39.2133 56.1467 38.36 56.04C37.5067 55.88 36.76 55.5333 36.12 55C35.8533 55.5867 35.5067 55.9067 35.08 55.96C34.7067 55.96 34.28 55.88 33.8 55.72C33.3733 55.56 32.9467 55.5333 32.52 55.64C31.9867 55.7467 31.4267 55.7733 30.84 55.72C30.3067 55.6667 29.72 55.6133 29.08 55.56V58.2C26.68 58.3067 24.3067 58.3333 21.96 58.28C19.6133 58.2267 17.24 58.2533 14.84 58.36V58.92ZM40.28 57.64C40.2267 57.64 40.2 57.64 40.2 57.64L40.12 57.56C40.1733 57.56 40.2 57.5333 40.2 57.48C40.2 57.5333 40.2 57.5867 40.2 57.64H40.28ZM13.48 58.36V58.04H3.48C3.48 58.1467 3.50667 58.2533 3.56 58.36H13.48Z" fill="#111111"/>
<path d="M72.0488 68.76C72.0488 68.9733 72.0221 69.1867 71.9688 69.4C71.9688 69.6133 71.9688 69.8533 71.9688 70.12H58.5288C58.4754 68.6267 58.3954 67.16 58.2887 65.72C58.2354 64.28 58.2888 62.8667 58.4488 61.48C58.6088 60.0933 58.6888 58.68 58.6888 57.24C58.6888 55.8 58.7154 54.4133 58.7687 53.08C58.8221 51.5867 58.8754 50.12 58.9288 48.68C58.9821 47.1867 59.0354 45.72 59.0888 44.28C59.1421 42.84 59.1688 41.3733 59.1688 39.88C59.1688 38.3867 59.1688 36.92 59.1688 35.48C59.2221 34.04 59.2754 32.5733 59.3288 31.08C59.3821 29.5867 59.4354 28.12 59.4888 26.68C59.5421 25.1867 59.5954 23.72 59.6488 22.28C59.7021 20.7867 59.7554 19.2133 59.8088 17.56H68.1287V17.32H51.7288V5.16C52.1554 5.10667 52.5554 5.08 52.9288 5.08C53.3554 5.08 53.7554 5.08 54.1287 5.08C57.1687 5.02667 60.2088 5 63.2488 5C66.2888 4.94667 69.3287 4.92 72.3687 4.92C74.0754 4.92 75.7554 4.94667 77.4088 5C79.1154 5.05334 80.8488 5.10667 82.6088 5.16V16.36C81.0621 16.52 79.4888 16.68 77.8888 16.84C76.3421 17 74.8221 17.16 73.3288 17.32C73.3288 18.9733 73.3288 20.6267 73.3288 22.28C73.3821 23.88 73.3821 25.48 73.3288 27.08C73.2754 27.9867 73.2754 28.8933 73.3288 29.8C73.3821 30.3333 73.3821 30.8667 73.3288 31.4C73.2754 31.88 73.1954 32.3333 73.0887 32.76C73.0354 33.56 72.9021 34.36 72.6888 35.16C72.5288 35.96 72.5021 36.7333 72.6088 37.48C72.9288 39.1867 73.0088 40.92 72.8488 42.68C72.7421 44.3867 72.7154 46.12 72.7687 47.88C72.8754 49.0533 72.8488 50.2533 72.6888 51.48C72.5821 52.7067 72.4754 53.9067 72.3687 55.08C72.3154 57.4267 72.2621 59.72 72.2088 61.96C72.2088 64.2 72.1554 66.4667 72.0488 68.76Z" fill="#111111"/>
<path d="M117.728 27C116.074 27 114.501 27.0267 113.008 27.08C111.514 27.1333 109.994 26.9733 108.447 26.6V33.4C109.087 32.8133 109.728 32.4933 110.368 32.44C111.061 32.3333 111.781 32.3333 112.528 32.44C113.274 32.5467 114.021 32.5467 114.768 32.44C114.714 34.0933 114.794 35.6667 115.008 37.16C115.274 38.6 115.194 40.0933 114.768 41.64C114.608 42.4933 114.554 43.3733 114.608 44.28C114.661 45.1867 114.634 46.0933 114.528 47C114.474 47.8533 114.367 48.3867 114.208 48.6C114.047 48.76 113.541 48.84 112.688 48.84H108.208C108.314 52.7333 108.314 56.5733 108.208 60.36C108.154 64.0933 108.288 67.8267 108.608 71.56H90.4475V4.04C90.7675 3.93334 91.7808 3.85334 93.4875 3.8C95.1942 3.74667 97.2475 3.72001 99.6475 3.72001C102.048 3.72001 104.501 3.72001 107.008 3.72001C109.514 3.72001 111.754 3.74667 113.728 3.8C115.701 3.8 117.034 3.85334 117.728 3.96V27Z" fill="#111111"/>
<path d="M140.134 67.24C134.481 65.32 129.494 62.12 125.174 57.64C123.788 56.0933 122.694 54.4133 121.894 52.6C121.148 50.7867 120.321 49 119.414 47.24C119.201 46.8667 119.094 46.44 119.094 45.96C119.148 45.48 119.148 45.0267 119.094 44.6C119.094 42.2533 119.094 39.9067 119.094 37.56C119.094 35.16 119.121 32.8133 119.174 30.52C119.174 29.08 119.441 27.6933 119.974 26.36C122.481 20.6533 125.921 16.1733 130.294 12.92C134.668 9.61334 139.788 7.24 145.654 5.8C146.561 5.58667 147.521 5.53334 148.534 5.64001C149.548 5.74667 150.614 5.8 151.734 5.8C151.681 7.88 151.601 9.88 151.494 11.8C151.388 13.6667 151.281 15.5333 151.174 17.4C151.121 19.0533 151.068 20.7067 151.014 22.36C150.961 24.0133 150.881 25.6933 150.774 27.4C150.721 28.4133 150.588 29.4267 150.374 30.44C150.214 31.4 150.161 32.3867 150.214 33.4C150.321 36.3867 150.454 39.4267 150.614 42.52C150.828 45.56 151.014 48.6267 151.174 51.72C151.174 51.9333 151.121 52.1467 151.014 52.36C150.961 52.52 150.934 52.7067 150.934 52.92C150.881 54.3067 150.721 55.6933 150.454 57.08C150.241 58.4133 150.481 59.8 151.174 61.24C151.601 62.0933 151.734 63.08 151.574 64.2C151.468 65.32 151.361 66.3867 151.254 67.4C151.201 68.0933 150.934 68.52 150.454 68.68C150.028 68.8933 149.548 68.9467 149.014 68.84C147.521 68.6267 146.001 68.4133 144.454 68.2C142.961 67.9867 141.521 67.6667 140.134 67.24ZM186.374 36.92C186.374 37.6133 186.374 38.3333 186.374 39.08C186.374 39.8267 186.428 40.5733 186.534 41.32C186.961 44.6267 186.561 47.6667 185.334 50.44C184.108 53.2133 182.561 55.9067 180.694 58.52C178.454 61.4533 175.814 63.8267 172.774 65.64C169.788 67.4533 166.534 68.8133 163.014 69.72C161.841 70.04 160.614 70.12 159.334 69.96C158.054 69.8533 156.614 69.8 155.014 69.8C154.801 59.4 154.534 49.0267 154.214 38.68C153.894 28.3333 153.574 17.9333 153.254 7.48001C153.788 7.32 154.268 7.16 154.694 7C155.121 6.78667 155.548 6.73334 155.974 6.84C159.121 6.89334 162.161 7.37334 165.094 8.28C168.028 9.13334 170.828 10.44 173.494 12.2C177.121 14.6 179.894 17.5067 181.814 20.92C183.734 24.3333 185.228 28.0133 186.294 31.96C186.508 32.7067 186.561 33.5333 186.454 34.44C186.401 35.2933 186.374 36.12 186.374 36.92Z" fill="#111111"/>
<path d="M214.729 4.6C217.075 5.56 219.422 6.54667 221.769 7.56C224.115 8.52 226.489 9.48 228.889 10.44C229.102 11.56 228.889 12.68 228.249 13.8C227.395 15.6667 226.569 17.5333 225.769 19.4C224.969 21.2133 224.169 23.0533 223.369 24.92C222.569 26.84 221.769 28.76 220.969 30.68C220.169 32.6 219.342 34.4933 218.489 36.36C218.062 37.3733 218.035 38.3067 218.409 39.16C219.475 41.9867 220.542 44.84 221.609 47.72C222.675 50.6 223.715 53.4533 224.729 56.28C225.315 57.8267 225.875 59.3733 226.409 60.92C226.942 62.4133 227.449 63.9333 227.929 65.48C228.035 65.7467 228.089 66.0667 228.089 66.44C228.142 66.76 228.169 67.0533 228.169 67.32C226.462 67.9067 224.809 68.4667 223.209 69C221.609 69.5333 220.009 70.0667 218.409 70.6C218.035 70.76 217.662 70.92 217.289 71.08C216.915 71.2933 216.542 71.4533 216.169 71.56C215.689 71.6667 215.209 71.7467 214.729 71.8C214.249 71.8533 213.742 71.9333 213.209 72.04C212.515 70.0667 211.769 68.12 210.969 66.2C210.222 64.28 209.422 62.28 208.569 60.2C207.609 62.1733 206.782 64.12 206.089 66.04C205.395 67.96 204.702 69.88 204.009 71.8C203.369 71.96 202.782 71.96 202.249 71.8C201.769 71.6933 201.262 71.5067 200.729 71.24C198.649 70.3333 196.569 69.4533 194.489 68.6C192.409 67.8 190.275 66.9733 188.089 66.12C187.875 65.5333 187.902 65 188.169 64.52C188.435 63.9867 188.702 63.4267 188.969 62.84C189.929 60.6533 190.862 58.44 191.769 56.2C192.675 53.96 193.582 51.6933 194.489 49.4C195.235 47.6933 195.955 45.9333 196.649 44.12C197.342 42.3067 198.062 40.5467 198.809 38.84C199.182 37.8267 199.182 36.84 198.809 35.88C197.369 32.04 195.929 28.2267 194.489 24.44C193.102 20.6533 191.715 16.8667 190.329 13.08C190.062 12.4933 189.849 11.88 189.689 11.24C189.582 10.6 189.449 9.93334 189.289 9.24C190.569 8.81334 191.715 8.36001 192.729 7.88C193.795 7.34667 194.915 6.97334 196.089 6.76C197.475 6.44 198.782 5.93334 200.009 5.24001C201.289 4.54667 202.595 3.88 203.929 3.24C204.729 4.30667 205.315 5.48001 205.689 6.76C206.062 8.04 206.462 9.32 206.889 10.6C207.315 11.88 208.009 13.0267 208.969 14.04C209.609 12.44 210.222 10.8667 210.809 9.32001C211.449 7.77334 212.115 6.17334 212.809 4.52C213.075 4.52 213.369 4.52 213.689 4.52C214.062 4.46667 214.409 4.49334 214.729 4.6Z" fill="#111111"/>
<path d="M254.804 32.6C254.751 35.0533 254.644 37.5333 254.484 40.04C254.378 42.5467 254.271 45.0533 254.164 47.56C254.111 48.2533 254.031 48.9733 253.924 49.72C253.871 50.4133 253.844 51.1067 253.844 51.8C253.951 55.0533 253.924 58.2533 253.764 61.4C253.604 64.4933 253.551 67.6133 253.604 70.76C253.658 71.6133 253.471 72.2 253.044 72.52C252.671 72.8933 252.031 73.08 251.124 73.08C250.058 73.08 249.284 73.08 248.804 73.08C248.324 73.08 247.924 73.0267 247.604 72.92C247.284 72.8133 246.858 72.6267 246.324 72.36C246.111 72.52 245.871 72.7067 245.604 72.92C245.338 73.1867 244.991 73.5333 244.564 73.96C244.351 73.64 244.138 73.2933 243.924 72.92C243.764 72.6 243.551 72.2533 243.284 71.88C243.071 72.2533 242.858 72.52 242.644 72.68C242.484 72.8933 242.324 73.1333 242.164 73.4C242.111 73.4 242.004 73.4 241.844 73.4C241.738 73.4533 241.658 73.4533 241.604 73.4C241.231 72.8667 240.778 72.5733 240.244 72.52C239.764 72.4667 239.284 72.52 238.804 72.68C238.111 73 237.471 73.08 236.884 72.92C236.298 72.8133 235.684 72.6267 235.044 72.36C234.938 71.56 234.964 70.7333 235.124 69.88C235.284 69.0267 235.418 68.1733 235.524 67.32C235.524 67.2133 235.524 67.08 235.524 66.92C235.578 66.76 235.578 66.6533 235.524 66.6C234.991 65.3733 234.751 64.1467 234.804 62.92C234.911 61.6933 235.098 60.4933 235.364 59.32C235.471 58.7867 235.578 58.2533 235.684 57.72C235.844 57.1867 235.978 56.6 236.084 55.96C235.604 55.6933 235.338 55.2933 235.284 54.76C235.284 54.1733 235.311 53.6133 235.364 53.08C235.524 51.8 235.631 50.52 235.684 49.24C235.738 47.9067 235.791 46.6267 235.844 45.4C235.898 43.4267 235.951 41.48 236.004 39.56C236.058 37.64 236.111 35.7467 236.164 33.88C236.271 30.4667 236.378 27.0533 236.484 23.64C236.591 20.1733 236.671 16.7333 236.724 13.32C236.831 11.7733 236.884 10.2267 236.884 8.68C236.884 7.08 236.911 5.53333 236.964 4.04C236.964 3.72 236.991 3.45334 237.044 3.24C237.098 2.97334 237.151 2.65334 237.204 2.28001C237.578 2.28001 237.951 2.28001 238.324 2.28001C238.698 2.22667 239.044 2.2 239.364 2.2H252.084C252.351 2.2 252.644 2.17334 252.964 2.12C253.338 2.06667 253.684 2.01334 254.004 1.96C255.178 1.96 255.684 2.49334 255.524 3.56C255.311 4.73334 255.231 5.88 255.284 7C255.391 8.06667 255.391 9.18667 255.284 10.36C255.178 11.32 255.098 12.3067 255.044 13.32C254.991 14.28 254.911 15.24 254.804 16.2C254.804 17 254.831 17.8 254.884 18.6C254.991 19.3467 255.044 20.12 255.044 20.92C255.044 21.2933 254.991 21.6667 254.884 22.04C254.831 22.4133 254.778 22.8133 254.724 23.24C254.671 23.4 254.591 23.5867 254.484 23.8C254.431 23.96 254.431 24.12 254.484 24.28C254.858 25.08 254.938 25.88 254.724 26.68C254.564 27.4267 254.298 28.1733 253.924 28.92C254.618 29.3467 254.964 29.88 254.964 30.52C254.964 31.16 254.911 31.8533 254.804 32.6ZM266.004 16.36C265.898 17.8533 265.791 19.3467 265.684 20.84C265.631 22.3333 265.551 23.8 265.444 25.24C265.444 25.2933 265.418 25.3467 265.364 25.4C265.364 25.4 265.364 25.4533 265.364 25.56C263.818 25.4533 262.244 25.4533 260.644 25.56C259.098 25.6667 257.471 25.56 255.764 25.24C255.818 23.6933 255.871 22.1467 255.924 20.6C255.978 19.0533 256.031 17.5067 256.084 15.96C256.191 15.16 256.244 14.3867 256.244 13.64C256.244 12.84 256.271 12.04 256.324 11.24C256.431 9.90667 256.564 8.6 256.724 7.32C256.884 6.04 256.991 4.73334 257.044 3.40001C257.044 2.6 257.391 2.2 258.084 2.2C259.524 2.25334 260.938 2.33334 262.324 2.44C263.764 2.49334 265.258 2.54667 266.804 2.6C266.751 4.04 266.698 5.42667 266.644 6.76C266.591 8.09334 266.538 9.4 266.484 10.68C266.431 11.6933 266.351 12.68 266.244 13.64C266.191 14.5467 266.111 15.4533 266.004 16.36ZM261.284 29.96C262.298 30.0133 262.964 30.2267 263.284 30.6C263.658 30.92 263.791 31.6133 263.684 32.68C263.631 33.6933 263.578 34.68 263.524 35.64C263.471 36.6 263.418 37.5867 263.364 38.6C263.364 39.7733 263.444 41 263.604 42.28C263.658 43.24 263.551 43.88 263.284 44.2C263.018 44.52 262.404 44.7067 261.444 44.76C261.124 44.8133 260.858 44.84 260.644 44.84C260.431 44.7867 260.191 44.76 259.924 44.76C258.751 44.8133 257.951 44.8133 257.524 44.76C257.098 44.6533 256.858 44.3867 256.804 43.96C256.804 43.48 256.804 42.76 256.804 41.8V32.6C256.858 31.5333 257.044 30.84 257.364 30.52C257.684 30.2 258.351 30.04 259.364 30.04C259.684 29.9867 260.004 29.96 260.324 29.96C260.698 29.96 261.018 29.96 261.284 29.96ZM256.484 72.6C255.151 72.6 254.484 71.9067 254.484 70.52V61C254.484 60.3067 254.404 59.56 254.244 58.76C254.244 58.6533 254.218 58.5467 254.164 58.44C254.164 58.28 254.164 58.1733 254.164 58.12C254.591 56.7867 254.724 55.5067 254.564 54.28C254.404 53 254.351 51.72 254.404 50.44C254.511 49.4267 254.671 48.84 254.884 48.68C255.098 48.4667 255.711 48.36 256.724 48.36H264.884C264.884 48.84 264.884 49.2667 264.884 49.64C264.938 49.96 264.964 50.3067 264.964 50.68C264.964 52.2267 264.911 53.7733 264.804 55.32C264.751 56.8667 264.724 58.4133 264.724 59.96C264.724 61.08 264.804 62.2 264.964 63.32C265.178 64.3867 265.311 65.5067 265.364 66.68C265.418 67.3733 265.444 68.12 265.444 68.92C265.444 69.72 265.444 70.52 265.444 71.32C265.444 72.2267 264.991 72.68 264.084 72.68C262.804 72.6267 261.524 72.6 260.244 72.6C258.964 72.6533 257.711 72.6533 256.484 72.6Z" fill="#111111"/>
<path d="M276.654 28.92C275.96 27.6933 275.4 26.4667 274.974 25.24C274.6 23.96 274.494 22.6267 274.654 21.24C274.814 20.2267 274.814 19.2933 274.654 18.44C274.44 16.0933 274.814 14.04 275.774 12.28C276.787 10.4667 277.987 8.78667 279.374 7.24C280.76 5.69334 282.36 4.49334 284.174 3.64C285.987 2.73334 287.827 1.90667 289.694 1.16001C290.334 0.946672 291.027 0.893337 291.774 1C292.574 1.10667 293.32 1.16001 294.014 1.16001C293.907 4.2 293.747 7.16 293.534 10.04C293.374 12.92 293.32 15.8267 293.374 18.76C293.427 21.5333 293.454 24.36 293.454 27.24C293.507 30.0667 293.667 32.8933 293.934 35.72C294.36 35.88 294.787 35.96 295.214 35.96C298.84 36.3333 301.88 37.48 304.334 39.4C306.787 41.2667 308.707 43.8533 310.094 47.16C310.52 48.0133 310.84 48.92 311.054 49.88C311.267 50.7867 311.32 51.7467 311.214 52.76C311.214 53.4533 311.187 54.1467 311.134 54.84C311.134 55.48 311.16 56.0933 311.214 56.68C311.587 59.0267 311.214 61.0533 310.094 62.76C309.027 64.4667 307.8 66.0667 306.414 67.56C305.027 69.1067 303.374 70.3067 301.454 71.16C299.587 72.0133 297.56 72.4933 295.374 72.6C295 72.6 294.654 72.5733 294.334 72.52C294.014 72.52 293.72 72.5733 293.454 72.68C292.654 73.0533 291.907 72.9467 291.214 72.36C291 72.1467 290.707 72.0133 290.334 71.96C290.014 71.96 289.72 71.9067 289.454 71.8C286.254 71 283.854 69.24 282.254 66.52C281.774 65.56 281.507 64.4133 281.454 63.08C281.4 61.7467 281.534 60.44 281.854 59.16C282.227 57.88 282.734 56.84 283.374 56.04C284.067 55.24 284.76 54.4667 285.454 53.72C286.147 52.9733 287.027 52.4667 288.094 52.2C288.68 52.04 289.24 51.9067 289.774 51.8C290.36 51.6933 290.947 51.6133 291.534 51.56C291.8 52.68 291.907 53.7467 291.854 54.76C291.8 55.7733 291.8 56.7867 291.854 57.8C291.96 58.1733 292.04 58.52 292.094 58.84C292.147 59.16 292.2 59.48 292.254 59.8C292.254 57.9867 292.254 56.1733 292.254 54.36C292.254 52.4933 292.2 50.6533 292.094 48.84C292.094 47.1333 292.04 45.4533 291.934 43.8C291.88 42.0933 291.827 40.3333 291.774 38.52C291.187 38.36 290.6 38.2267 290.014 38.12C289.48 37.96 288.947 37.8 288.414 37.64C285.96 36.8933 283.694 35.8267 281.614 34.44C279.587 33.0533 277.934 31.2133 276.654 28.92ZM294.814 1.16001C296.894 1.32 298.6 1.88 299.934 2.84C301.8 4.06667 303.32 5.53334 304.494 7.24C305.72 8.89334 306.254 10.8933 306.094 13.24C305.827 17.6667 303.667 20.8133 299.614 22.68C298.76 23 297.88 23.2933 296.974 23.56C296.067 23.7733 295.08 23.5867 294.014 23C294.014 19.4267 294.04 15.8267 294.094 12.2C294.147 8.57334 294.387 4.89334 294.814 1.16001ZM292.334 65.16H292.814C292.76 64.4667 292.68 63.8 292.574 63.16C292.52 62.52 292.44 61.88 292.334 61.24V65.16Z" fill="#111111"/>
</svg>
